<svg width="1440" height="620" viewBox="0 0 1440 620" fill="none" xmlns="http://www.w3.org/2000/svg">
<g clip-path="url(#clip0_89_3)">
<rect width="1440" height="620" fill="#78E1E1"/>
<path d="M1319.4 478.545C1311.11 495.065 1340.62 492.134 1337.51 473.841C1336.77 469.441 1334.38 466.253 1331.13 463.98C1326.41 467.803 1322.12 473.111 1319.4 478.545Z" fill="#329393"/>
<path d="M1256.76 510.949L1308.01 478.545L1313.91 458.947C1310.35 458.736 1307 458.888 1304.39 459.207L1250.04 499.451L1245.38 516.175L1162.56 527.673L1166.18 540.739L1250.04 527.673L1256.76 510.949Z" fill="#329393"/>
<path d="M1288.86 414.26C1288.68 412.783 1288.47 410.854 1288.25 408.601C1205.32 407.481 1093.25 449.282 1040.92 473.841L1059.04 474.886C1066.9 455.653 1215.53 426.455 1288.86 414.26Z" fill="#329393"/>
<path d="M1080.78 502.586L1059.04 474.886L1040.92 473.841L1077.67 510.949L1149.1 527.673L1146 518.788L1080.78 502.586Z" fill="#329393"/>
<path d="M1262.98 270.533L1262.3 270.507C1257.29 274.156 1252.84 277.384 1250.04 279.418C1246.07 290.742 1232.85 315.689 1211.73 324.888C1185.33 336.386 1240.72 293.529 1229.85 274.192C1218.98 254.854 1200.86 315.48 1191.03 318.094C1181.19 320.707 1205.52 299.801 1203.97 282.031C1202.44 264.506 1191.84 276.466 1183.11 286.324L1182.75 286.735C1173.95 296.665 1152.21 321.752 1154.8 328.024C1157.38 334.295 1169.81 320.707 1178.09 326.456C1186.37 332.205 1191.55 321.229 1199.83 330.637C1208.11 340.045 1258.32 300.846 1272.81 277.85C1284.41 259.453 1275.23 278.198 1269.19 289.871L1363.91 261.648C1364.27 261.198 1365.9 254.198 1369.5 229.798C1373.1 205.398 1355.33 203.266 1346 205.25C1338.48 209.547 1325.39 213.199 1316.29 215.133L1316.1 215.152C1303.24 230.733 1290.67 249.698 1283.68 254.854C1277.82 259.181 1270.35 264.636 1263.69 269.494C1263.45 269.854 1263.21 270.201 1262.98 270.533Z" fill="#329393"/>
<path d="M800.23 456.071C832.84 463.388 951.891 465.479 976.219 450.322C1000.55 435.166 1097.34 439.869 1125.29 334.295L1128.74 324.732L1122.19 320.707C1119.25 329.766 1105 351.752 1071.46 367.222C1029.53 386.56 931.704 416.873 854.062 416.35C800.533 415.99 758.567 407.929 738.512 398.332C738 415.644 771.522 449.63 800.23 456.071Z" fill="#329393"/>
<path d="M783.666 390.218C792.466 407.465 824.35 397.535 805.924 390.218C800.22 387.953 792.938 385.989 785.249 384.759C783.37 386.637 782.772 388.465 783.666 390.218Z" fill="#329393"/>
<path d="M1071.46 344.226C1071.29 341.09 1054.9 336.177 990.712 341.612C963.945 343.879 931.013 348.124 899.337 353.415C908.364 381.512 951.799 411.924 1071.46 344.226Z" fill="#329393"/>
<path d="M897.541 344.226C896.599 330.911 919.031 323.645 942.057 294.077C931.322 295.175 919.97 296.351 907.985 297.594L906.858 297.71C770.726 311.822 728.282 370.88 725.694 384.992C724.89 389.374 729.478 394.009 738.512 398.332C738.582 395.979 739.28 393.935 740.705 392.309C748.924 382.927 768.1 382.015 785.249 384.759C795.693 374.325 845.717 362.371 899.337 353.415C898.328 350.276 897.749 347.167 897.541 344.226Z" fill="#329393"/>
<path d="M716.377 249.627C768.961 255.473 763.543 264.496 773.878 285.584C781.615 281.62 786.033 273.99 783.666 261.125C778.283 231.857 733.458 236.735 711.718 242.833L716.377 249.627Z" fill="#329393"/>
<path d="M713.789 284.122C739.324 294.4 787.6 310.045 776.42 290.393C775.47 288.724 774.632 287.122 773.878 285.584C759.614 292.892 734.067 287.735 718.965 279.941L713.789 284.122Z" fill="#329393"/>
<path d="M800.23 215.133C805.373 209.754 806.214 203.717 804.326 197.792C784.033 192.376 772.128 203.143 769.173 212.52C765.55 224.018 785.737 230.29 800.23 215.133Z" fill="#329393"/>
<path d="M903.753 266.352C904.158 274.936 875.435 253.47 851.013 223.206C876.986 239.703 903.393 258.717 903.753 266.352Z" fill="#329393"/>
<path d="M526.93 355.201C568.805 371.782 599.555 413.365 603.947 427.998C589.799 379.29 555.359 347.7 539.871 343.703L500.532 275.759L562.646 241.788L556.434 230.29L486.556 273.669L526.93 355.201Z" fill="#329393"/>
<path d="M597.326 343.703C595.255 318.616 608.196 317.048 595.255 295.097C584.903 277.536 571.618 257.467 566.269 249.627L556.434 255.899L587.491 306.595C585.938 317.222 584.075 341.194 589.044 352.065C591.066 356.489 599.955 365.216 611.312 375.162C603.082 360.252 597.75 348.842 597.326 343.703Z" fill="#329393"/>
<path d="M529.518 430.984L480.345 379.243L513.99 423.667L470.51 382.379L509.849 428.371L464.299 388.128L504.155 432.552L459.641 394.399L513.99 456.594C518.352 450.104 524.038 442.183 529.518 435.471V430.984Z" fill="#329393"/>
<path d="M486.556 527.673C487.095 524.817 485.881 519.872 483.48 514.064C474.54 514.677 466.22 514.891 462.229 514.085C451.876 511.994 428.584 546.488 452.394 552.76C476.204 559.032 484.486 538.649 486.556 527.673Z" fill="#329393"/>
<path d="M554.881 430.984C550.585 431.449 548.146 433.794 546.901 436.934C545.57 459.267 568.362 429.526 554.881 430.984Z" fill="#329393"/>
<path d="M224.127 379.765C219.094 399.666 212.703 398.299 206.605 399.286L193.587 461.298C186.858 462.866 184.063 470.183 226.715 486.907C280.029 507.813 374.752 544.398 388.728 538.649C398.062 534.809 415.985 486.009 427.673 450.23C424.591 443.264 422.452 436.05 421.337 430.984H433.76L438.521 421.798C436.791 424.585 431.147 424.609 415.643 418.964C384.069 407.465 233.444 365.654 230.855 357.814C229.962 355.109 227.713 354.644 225.128 355.368C225.742 362.104 226.432 370.647 224.127 379.765Z" fill="#329393"/>
<path d="M321.955 366.699C301.423 361.299 255.804 348.929 237.584 342.658C223.264 337.728 224.087 343.957 225.128 355.368C227.713 354.644 229.962 355.109 230.855 357.814C233.444 365.654 384.069 407.465 415.643 418.964C431.147 424.609 436.791 424.585 438.521 421.798C440.315 418.909 437.901 413.052 437.901 407.465C437.901 398.685 376.477 380.811 345.766 372.971L358.706 352.588L319.885 342.658L321.955 366.699Z" fill="#329393"/>
<path d="M213.774 365.131C213.761 365.239 213.743 365.323 213.721 365.384L206.605 399.286C212.703 398.299 219.094 399.666 224.127 379.765C226.432 370.647 225.742 362.104 225.128 355.368C220.224 356.741 214.113 362.393 213.774 365.131Z" fill="#329393"/>
<path d="M203.94 339.522L216.88 327.501L199.281 318.616L99.3817 199.454H82.3005L72.9835 214.088L75.5715 226.631L96.7937 236.039C104.213 251.892 121.536 284.749 131.474 289.348C143.896 295.097 177.024 314.958 179.612 326.456C181.682 335.654 181.51 351.891 181.165 358.86L195.14 346.316L212.909 364.258C211.289 360.095 207.687 346.549 203.94 339.522Z" fill="#329393"/>
<path d="M170.287 373.763C176.598 391.687 169.887 406.531 161.495 398.058C154.848 391.346 162.164 378.25 170.287 373.763Z" fill="#329393"/>
<path d="M91.5901 535.009C86.2545 535.152 81.2034 535.15 76.9871 535.066C82.6469 541.146 88.2849 545.443 91.6175 545.443C97.3113 545.443 131.474 547.011 140.791 542.83C150.108 538.649 153.214 522.447 157.354 514.085C161.495 505.722 163.566 490.566 163.566 474.886C163.566 459.207 156.837 456.071 148.037 440.915C139.238 425.758 139.756 420.532 142.344 412.692C144.932 404.852 142.344 402.762 139.756 403.807C137.168 404.852 125.78 403.807 144.932 451.89C164.083 499.973 145.449 523.492 134.062 532.9C124.755 540.588 101.274 538.153 91.5901 535.009Z" fill="#329393"/>
<path d="M133.027 527.673C142.861 518.788 84.8886 529.241 87.4766 532.9C87.9496 533.568 89.4249 534.307 91.5901 535.009C108.135 534.568 127.416 532.742 133.027 527.673Z" fill="#329393"/>
<path d="M0 518.266C10.6973 524.189 40.4774 535.827 74.0187 534.99C74.9515 535.02 75.9437 535.046 76.9871 535.066M213.774 365.131C214.113 362.393 220.224 356.741 225.128 355.368M213.774 365.131C213.761 365.239 213.743 365.323 213.721 365.384M213.774 365.131L213.721 365.384M213.774 365.131L212.909 364.258M433.76 430.984H421.337C422.452 436.05 424.591 443.264 427.673 450.23M433.76 430.984L438.521 421.798M433.76 430.984C432.051 436.592 429.984 443.157 427.673 450.23M604.055 428.371C588.181 418.964 548.67 391.786 567.304 441.96C585.938 492.134 561.955 471.228 547.635 454.503C546.114 449.897 544.785 442.268 546.901 436.934M604.055 428.371L674.968 551.192C690.841 549.624 722.174 546.175 720.518 544.921C718.871 543.674 643.259 433.044 611.312 375.162M604.055 428.371C604.019 428.247 603.983 428.122 603.947 427.998M604.055 428.371C604.021 428.249 603.985 428.124 603.947 427.998M713.789 284.122C666.996 307.536 660.474 382.379 663.063 416.873C649.657 406.747 627.864 389.66 611.312 375.162M713.789 284.122C739.324 294.4 787.6 310.045 776.42 290.393C775.47 288.724 774.632 287.122 773.878 285.584M713.789 284.122L718.965 279.941M718.965 279.941L707.577 254.854L626.312 207.293L595.255 193.705L593.702 179.593C599.914 177.328 620.204 180.22 651.675 209.906C683.146 239.593 695.845 239 698.26 234.993C695.672 225.934 693.912 204.576 707.577 191.614C724.659 175.412 757.786 162.869 776.42 171.231C788.441 176.626 800.893 187.023 804.326 197.792M718.965 279.941C734.067 287.735 759.614 292.892 773.878 285.584M906.858 297.71C770.726 311.822 728.282 370.88 725.694 384.992C724.89 389.374 729.478 394.009 738.512 398.332M906.858 297.71L907.985 297.594M906.858 297.71C907.235 297.671 907.61 297.633 907.985 297.594M1182.75 286.735C1173.95 296.665 1152.21 321.752 1154.8 328.024C1157.38 334.295 1169.81 320.707 1178.09 326.456C1186.37 332.205 1191.55 321.229 1199.83 330.637C1208.11 340.045 1258.32 300.846 1272.81 277.85C1284.41 259.453 1275.23 278.198 1269.19 289.871L1363.91 261.648M1182.75 286.735L1183.11 286.324M1182.75 286.735C1182.87 286.598 1182.99 286.462 1183.11 286.324M1363.91 261.648C1338.38 293.878 1287.2 361.786 1286.79 375.584C1286.46 386.53 1287.41 399.953 1288.25 408.601M1363.91 261.648C1364.27 261.198 1365.9 254.198 1369.5 229.798C1373.1 205.398 1355.33 203.266 1346 205.25M1059.04 474.886C1066.9 455.653 1215.53 426.455 1288.86 414.26C1288.68 412.783 1288.47 410.854 1288.25 408.601M1059.04 474.886L1080.78 502.586L1146 518.788L1149.1 527.673L1077.67 510.949L1040.92 473.841M1059.04 474.886L1040.92 473.841M1040.92 473.841C1093.25 449.282 1205.32 407.481 1288.25 408.601M225.128 355.368C227.713 354.644 229.962 355.109 230.855 357.814C233.444 365.654 384.069 407.465 415.643 418.964C431.147 424.609 436.791 424.585 438.521 421.798M225.128 355.368C225.742 362.104 226.432 370.647 224.127 379.765C219.094 399.666 212.703 398.299 206.605 399.286M225.128 355.368C224.087 343.957 223.264 337.728 237.584 342.658C255.804 348.929 301.423 361.299 321.955 366.699L319.885 342.658L358.706 352.588L345.766 372.971C376.477 380.811 437.901 398.685 437.901 407.465C437.901 413.052 440.315 418.909 438.521 421.798M529.518 435.471C524.038 442.183 518.352 450.104 513.99 456.594L459.641 394.399L504.155 432.552L464.299 388.128L509.849 428.371L470.51 382.379L513.99 423.667L480.345 379.243L529.518 430.984V435.471ZM529.518 435.471C540.513 422.005 550.675 413.405 547.635 430.984C547.237 433.285 547.001 435.256 546.901 436.934M529.518 435.471V444.573C551.431 464.956 602.398 512.308 630.971 538.649C666.686 571.575 616.477 563.213 612.336 564.781C609.024 566.035 557.469 498.057 532.106 463.911C536.247 473.109 525.895 472.97 520.201 471.751C496.184 474.259 503.293 499.276 509.849 511.471C503.414 512.284 493.089 513.404 483.48 514.064M546.901 436.934C548.146 433.794 550.585 431.449 554.881 430.984C568.362 429.526 545.57 459.267 546.901 436.934ZM611.312 375.162C599.955 365.216 591.066 356.489 589.044 352.065C584.075 341.194 585.938 317.222 587.491 306.595L556.434 255.899L566.269 249.627C571.618 257.467 584.903 277.536 595.255 295.097C608.196 317.048 595.255 318.616 597.326 343.703C597.75 348.842 603.082 360.252 611.312 375.162ZM851.013 223.206C875.435 253.47 904.158 274.936 903.753 266.352C903.393 258.717 876.986 239.703 851.013 223.206ZM851.013 223.206C844.208 214.773 837.736 205.657 832.322 196.318C807.477 153.461 811.618 81.3363 859.238 82.9043C897.334 84.1586 873.534 195.093 898.059 109.036C922.584 22.9799 1004.56 35.7661 985.536 175.935C977.328 236.393 959.522 271.65 942.057 294.077M851.013 223.206C839.646 215.986 828.363 209.248 819.382 204.157C813.938 201.072 808.917 199.018 804.326 197.792M899.337 353.415C931.013 348.124 963.945 343.879 990.712 341.612C1054.9 336.177 1071.29 341.09 1071.46 344.226C951.799 411.924 908.364 381.512 899.337 353.415ZM899.337 353.415C898.328 350.276 897.749 347.167 897.541 344.226C896.599 330.911 919.031 323.645 942.057 294.077M899.337 353.415C845.717 362.371 795.693 374.325 785.249 384.759M785.249 384.759C783.37 386.637 782.772 388.465 783.666 390.218C792.466 407.465 824.35 397.535 805.924 390.218C800.22 387.953 792.938 385.989 785.249 384.759ZM785.249 384.759C768.1 382.015 748.924 382.927 740.705 392.309C739.28 393.935 738.582 395.979 738.512 398.332M738.512 398.332C758.567 407.929 800.533 415.99 854.062 416.35C931.704 416.873 1029.53 386.56 1071.46 367.222C1105 351.752 1119.25 329.766 1122.19 320.707L1128.74 324.732M738.512 398.332C738 415.644 771.522 449.63 800.23 456.071C832.84 463.388 951.891 465.479 976.219 450.322C1000.55 435.166 1097.34 439.869 1125.29 334.295L1128.74 324.732M1128.74 324.732L1134.09 328.024H1151.17L1162.56 302.937H1151.17L1129.43 322.797L1128.74 324.732ZM1346 205.25C1338.48 209.547 1325.39 213.199 1316.29 215.133L1316.1 215.152M1346 205.25C1352.02 201.806 1354.46 197.948 1348.38 194.227C1340.17 189.202 1328.01 200.726 1316.1 215.152M1313.91 458.947C1310.35 458.736 1307 458.888 1304.39 459.207L1250.04 499.451L1245.38 516.175L1162.56 527.673L1166.18 540.739L1250.04 527.673L1256.76 510.949L1308.01 478.545L1313.91 458.947ZM1313.91 458.947L1327.68 413.215C1315.68 410.231 1302.39 408.792 1288.25 408.601M1313.91 458.947C1319.86 459.301 1326.4 460.672 1331.13 463.98M1331.13 463.98C1334.38 466.253 1336.77 469.441 1337.51 473.841C1340.62 492.134 1311.11 495.065 1319.4 478.545C1322.12 473.111 1326.41 467.803 1331.13 463.98ZM1331.13 463.98C1340.76 456.183 1352.16 454.572 1355.63 470.705C1360.81 494.747 1359.77 506.245 1387.72 527.673C1410.08 544.816 1431.89 508.336 1440 487.952L1498 470.705M1262.3 270.507L1262.98 270.533C1263.21 270.201 1263.45 269.854 1263.69 269.494M1262.3 270.507C1257.29 274.156 1252.84 277.384 1250.04 279.418C1246.07 290.742 1232.85 315.689 1211.73 324.888C1185.33 336.386 1240.72 293.529 1229.85 274.192C1218.98 254.854 1200.86 315.48 1191.03 318.094C1181.19 320.707 1205.52 299.801 1203.97 282.031C1202.44 264.506 1191.84 276.466 1183.11 286.324M1262.3 270.507C1262.76 270.173 1263.22 269.835 1263.69 269.494M1262.3 270.507L1193.62 267.92C1187.58 275.759 1172.91 292.484 1162.56 296.665C1149.62 301.892 1136.16 291.439 1148.58 283.599C1161.01 275.759 1186.89 254.331 1193.62 247.537C1199 242.101 1207.94 242.136 1211.73 242.833C1221.22 239 1236.99 230.499 1224.16 227.154C1211.32 223.809 1160.14 257.119 1136.16 274.192L1131.5 291.439L1122.19 294.575C1107.5 273.146 1074.05 280.986 1067.84 294.575C1061.62 308.163 1092.68 322.797 1095.27 300.324C1097.62 279.897 1052.51 282.786 942.057 294.077M1316.1 215.152C1303.24 230.733 1290.67 249.698 1283.68 254.854C1277.82 259.181 1270.35 264.636 1263.69 269.494M1316.1 215.152L1235.03 223.495C1237.96 223.495 1247.65 225.481 1262.98 233.425C1277.74 241.078 1269.98 260.017 1263.69 269.494M942.057 294.077C931.322 295.175 919.97 296.351 907.985 297.594M773.878 285.584C763.543 264.496 768.961 255.473 716.377 249.627L711.718 242.833C733.458 236.735 778.283 231.857 783.666 261.125C786.033 273.99 781.615 281.62 773.878 285.584ZM804.326 197.792C806.214 203.717 805.373 209.754 800.23 215.133C785.737 230.29 765.55 224.018 769.173 212.52C772.128 203.143 784.033 192.376 804.326 197.792ZM603.947 427.998C599.555 413.365 568.805 371.782 526.93 355.201L486.556 273.669L556.434 230.29L562.646 241.788L500.532 275.759L539.871 343.703C555.359 347.7 589.799 379.29 603.947 427.998ZM483.48 514.064C485.881 519.872 487.095 524.817 486.556 527.673C484.486 538.649 476.204 559.032 452.394 552.76C428.584 546.488 451.876 511.994 462.229 514.085C466.22 514.891 474.54 514.677 483.48 514.064ZM483.48 514.064C476.654 497.554 460.237 474.07 447.218 471.751C438.825 470.255 432.222 460.513 427.673 450.23M206.605 399.286L193.587 461.298C186.858 462.866 184.063 470.183 226.715 486.907C280.029 507.813 374.752 544.398 388.728 538.649C398.062 534.809 415.985 486.009 427.673 450.23M206.605 399.286C205.176 399.517 203.763 399.877 202.387 400.671C195.14 404.852 188.929 380.288 179.612 373.494C176.942 371.547 173.549 371.96 170.287 373.763M206.605 399.286L213.721 365.384M213.721 365.384C213.591 365.745 213.311 365.289 212.909 364.258M212.909 364.258L195.14 346.316L181.165 358.86C181.51 351.891 181.682 335.654 179.612 326.456C177.024 314.958 143.896 295.097 131.474 289.348C121.536 284.749 104.213 251.892 96.7937 236.039L75.5715 226.631L72.9835 214.088L82.3005 199.454H99.3817L199.281 318.616L216.88 327.501L203.94 339.522C207.687 346.549 211.289 360.095 212.909 364.258ZM170.287 373.763C176.598 391.687 169.887 406.531 161.495 398.058C154.848 391.346 162.164 378.25 170.287 373.763ZM170.287 373.763C169.59 371.785 168.735 369.77 167.707 367.745C159.425 351.438 136.65 382.901 126.298 400.671C107.664 397.535 54.3494 408.511 49.1733 413.215C43.9971 417.918 56.4198 428.371 58.4903 430.984C60.5607 433.598 62.1136 440.915 58.4903 449.277C54.867 457.639 51.7613 470.183 50.2085 476.977C48.6556 483.771 39.8562 479.59 33.6449 470.183C27.4335 460.775 33.1272 451.89 39.8562 443.528C46.5852 435.166 50.2085 450.322 53.3142 443.528C55.7987 438.092 52.2789 432.901 50.2085 430.984C36.2329 429.939 18.6341 440.915 18.6341 462.343C18.6341 479.486 40.7189 491.785 51.7613 495.792C54.867 502.064 57.9727 507.813 65.7369 520.356C68.9565 525.558 72.9773 530.759 76.9871 535.066M91.5901 535.009C86.2545 535.152 81.2034 535.15 76.9871 535.066M91.5901 535.009C101.274 538.153 124.755 540.588 134.062 532.9C145.449 523.492 164.083 499.973 144.932 451.89C125.78 403.807 137.168 404.852 139.756 403.807C142.344 402.762 144.932 404.852 142.344 412.692C139.756 420.532 139.238 425.758 148.037 440.915C156.837 456.071 163.566 459.207 163.566 474.886C163.566 490.566 161.495 505.722 157.354 514.085C153.214 522.447 150.108 538.649 140.791 542.83C131.474 547.011 97.3113 545.443 91.6175 545.443C88.2849 545.443 82.6469 541.146 76.9871 535.066M91.5901 535.009C89.4249 534.307 87.9496 533.568 87.4766 532.9C84.8886 529.241 142.861 518.788 133.027 527.673C127.416 532.742 108.135 534.568 91.5901 535.009Z" stroke="#257272" stroke-width="2"/>
</g>
<defs>
<clipPath id="clip0_89_3">
<rect width="1440" height="620" fill="white"/>
</clipPath>
</defs>
</svg>
