<svg width="1440" height="1024" viewBox="0 0 1440 1024" fill="none" xmlns="http://www.w3.org/2000/svg">
<g clip-path="url(#clip0_89_3)">
<rect width="1440" height="1024" fill="#78E1E1"/>
<path d="M1319.4 697.747C1311.11 714.267 1340.62 711.336 1337.51 693.043C1336.77 688.643 1334.38 685.455 1331.13 683.182C1326.41 687.004 1322.12 692.313 1319.4 697.747Z" fill="#329393"/>
<path d="M1256.76 730.151L1308.01 697.747L1313.91 678.149C1310.35 677.938 1307 678.09 1304.39 678.409L1250.04 718.653L1245.38 735.377L1162.56 746.875L1166.18 759.941L1250.04 746.875L1256.76 730.151Z" fill="#329393"/>
<path d="M1288.86 633.462C1288.68 631.985 1288.47 630.056 1288.25 627.803C1205.32 626.683 1093.25 668.484 1040.92 693.043L1059.04 694.088C1066.9 674.855 1215.53 645.657 1288.86 633.462Z" fill="#329393"/>
<path d="M1080.78 721.788L1059.04 694.088L1040.92 693.043L1077.67 730.151L1149.1 746.875L1146 737.99L1080.78 721.788Z" fill="#329393"/>
<path d="M1262.98 489.735L1262.3 489.709C1257.29 493.358 1252.84 496.586 1250.04 498.62C1246.07 509.944 1232.85 534.891 1211.73 544.09C1185.33 555.588 1240.72 512.731 1229.85 493.393C1218.98 474.056 1200.86 534.682 1191.03 537.295C1181.19 539.909 1205.52 519.003 1203.97 501.233C1202.44 483.707 1191.84 495.668 1183.11 505.526L1182.75 505.937C1173.95 515.867 1152.21 540.954 1154.8 547.226C1157.38 553.497 1169.81 539.909 1178.09 545.658C1186.37 551.407 1191.55 540.431 1199.83 549.839C1208.11 559.246 1258.32 520.048 1272.81 497.052C1284.41 478.655 1275.23 497.4 1269.19 509.073L1363.91 480.85C1364.27 480.4 1365.9 473.4 1369.5 449C1373.1 424.6 1355.33 422.468 1346 424.452C1338.48 428.749 1325.39 432.401 1316.29 434.335L1316.1 434.354C1303.24 449.935 1290.67 468.9 1283.68 474.056C1277.82 478.383 1270.35 483.838 1263.69 488.696C1263.45 489.056 1263.21 489.403 1262.98 489.735Z" fill="#329393"/>
<path d="M800.23 675.273C832.84 682.59 951.891 684.681 976.219 669.524C1000.55 654.367 1097.34 659.071 1125.29 553.497L1128.74 543.934L1122.19 539.909C1119.25 548.968 1105 570.954 1071.46 586.424C1029.53 605.762 931.704 636.075 854.062 635.552C800.533 635.192 758.567 627.131 738.512 617.534C738 634.846 771.522 668.832 800.23 675.273Z" fill="#329393"/>
<path d="M783.666 609.42C792.466 626.667 824.35 616.737 805.924 609.42C800.22 607.155 792.938 605.191 785.249 603.961C783.37 605.838 782.772 607.667 783.666 609.42Z" fill="#329393"/>
<path d="M1071.46 563.428C1071.29 560.292 1054.9 555.379 990.712 560.814C963.945 563.081 931.013 567.326 899.337 572.617C908.364 600.714 951.799 631.126 1071.46 563.428Z" fill="#329393"/>
<path d="M897.541 563.428C896.599 550.113 919.031 542.847 942.057 513.279C931.322 514.376 919.97 515.553 907.985 516.796L906.858 516.912C770.726 531.024 728.282 590.082 725.694 604.194C724.89 608.576 729.478 613.211 738.512 617.534C738.582 615.181 739.28 613.137 740.705 611.511C748.924 602.129 768.1 601.217 785.249 603.961C795.693 593.527 845.717 581.573 899.337 572.617C898.328 569.478 897.749 566.368 897.541 563.428Z" fill="#329393"/>
<path d="M716.377 468.829C768.961 474.675 763.543 483.698 773.878 504.785C781.615 500.822 786.033 493.192 783.666 480.327C778.283 451.059 733.458 455.937 711.718 462.035L716.377 468.829Z" fill="#329393"/>
<path d="M713.789 503.324C739.324 513.602 787.6 529.247 776.42 509.595C775.47 507.926 774.632 506.323 773.878 504.785C759.614 512.094 734.067 506.936 718.965 499.143L713.789 503.324Z" fill="#329393"/>
<path d="M800.23 434.335C805.373 428.956 806.214 422.919 804.326 416.994C784.033 411.578 772.128 422.345 769.173 431.722C765.55 443.22 785.737 449.491 800.23 434.335Z" fill="#329393"/>
<path d="M903.753 485.554C904.158 494.138 875.435 472.672 851.013 442.408C876.986 458.905 903.393 477.919 903.753 485.554Z" fill="#329393"/>
<path d="M526.93 574.403C568.805 590.984 599.555 632.566 603.947 647.2C589.799 598.492 555.359 566.902 539.871 562.905L500.532 494.961L562.646 460.99L556.434 449.492L486.556 492.871L526.93 574.403Z" fill="#329393"/>
<path d="M597.326 562.905C595.255 537.818 608.196 536.25 595.255 514.299C584.903 496.738 571.618 476.669 566.269 468.829L556.434 475.101L587.491 525.797C585.938 536.424 584.075 560.396 589.044 571.267C591.066 575.691 599.955 584.418 611.312 594.364C603.082 579.454 597.75 568.044 597.326 562.905Z" fill="#329393"/>
<path d="M529.518 650.186L480.345 598.445L513.99 642.869L470.51 601.581L509.849 647.573L464.299 607.33L504.155 651.754L459.641 613.601L513.99 675.796C518.352 669.305 524.038 661.385 529.518 654.673V650.186Z" fill="#329393"/>
<path d="M486.556 746.875C487.095 744.019 485.881 739.074 483.48 733.266C474.54 733.879 466.22 734.093 462.229 733.287C451.876 731.196 428.584 765.69 452.394 771.962C476.204 778.234 484.486 757.851 486.556 746.875Z" fill="#329393"/>
<path d="M554.881 650.186C550.585 650.651 548.146 652.996 546.901 656.136C545.57 678.469 568.362 648.728 554.881 650.186Z" fill="#329393"/>
<path d="M224.127 598.967C219.094 618.868 212.703 617.501 206.605 618.487L193.587 680.5C186.858 682.068 184.063 689.385 226.715 706.109C280.029 727.015 374.752 763.6 388.728 757.851C398.062 754.011 415.985 705.211 427.673 669.432C424.591 662.466 422.452 655.252 421.337 650.186H433.76L438.521 641C436.791 643.787 431.147 643.811 415.643 638.166C384.069 626.667 233.444 584.856 230.855 577.016C229.962 574.311 227.713 573.846 225.128 574.57C225.742 581.306 226.432 589.849 224.127 598.967Z" fill="#329393"/>
<path d="M321.955 585.901C301.423 580.501 255.804 568.131 237.584 561.86C223.264 556.93 224.087 563.159 225.128 574.57C227.713 573.846 229.962 574.311 230.855 577.016C233.444 584.856 384.069 626.667 415.643 638.166C431.147 643.811 436.791 643.787 438.521 641C440.315 638.111 437.901 632.254 437.901 626.667C437.901 617.887 376.477 600.013 345.766 592.173L358.706 571.79L319.885 561.86L321.955 585.901Z" fill="#329393"/>
<path d="M213.774 584.333C213.761 584.441 213.743 584.525 213.721 584.586L206.605 618.487C212.703 617.501 219.094 618.868 224.127 598.967C226.432 589.849 225.742 581.306 225.128 574.57C220.224 575.943 214.113 581.595 213.774 584.333Z" fill="#329393"/>
<path d="M203.94 558.724L216.88 546.703L199.281 537.818L99.3817 418.656H82.3005L72.9835 433.29L75.5715 445.833L96.7937 455.241C104.213 471.094 121.536 503.951 131.474 508.55C143.896 514.299 177.024 534.16 179.612 545.658C181.682 554.856 181.51 571.093 181.165 578.062L195.14 565.518L212.909 583.46C211.289 579.297 207.687 565.751 203.94 558.724Z" fill="#329393"/>
<path d="M170.287 592.965C176.598 610.889 169.887 625.733 161.495 617.26C154.848 610.548 162.164 597.452 170.287 592.965Z" fill="#329393"/>
<path d="M91.5901 754.211C86.2545 754.354 81.2034 754.352 76.9871 754.268C82.6469 760.348 88.2849 764.645 91.6175 764.645C97.3113 764.645 131.474 766.213 140.791 762.032C150.108 757.851 153.214 741.649 157.354 733.287C161.495 724.924 163.566 709.768 163.566 694.088C163.566 678.409 156.837 675.273 148.037 660.117C139.238 644.96 139.756 639.734 142.344 631.894C144.932 624.054 142.344 621.964 139.756 623.009C137.168 624.054 125.78 623.009 144.932 671.092C164.083 719.175 145.449 742.694 134.062 752.102C124.755 759.79 101.274 757.355 91.5901 754.211Z" fill="#329393"/>
<path d="M133.027 746.875C142.861 737.99 84.8886 748.443 87.4766 752.102C87.9496 752.77 89.4249 753.509 91.5901 754.211C108.135 753.77 127.416 751.944 133.027 746.875Z" fill="#329393"/>
<path d="M0 737.468C10.6973 743.391 40.4774 755.028 74.0187 754.192C74.9515 754.222 75.9437 754.248 76.9871 754.268M213.774 584.333C214.113 581.595 220.224 575.943 225.128 574.57M213.774 584.333C213.761 584.441 213.743 584.525 213.721 584.586M213.774 584.333L213.721 584.586M213.774 584.333L212.909 583.46M433.76 650.186H421.337C422.452 655.252 424.591 662.466 427.673 669.432M433.76 650.186L438.521 641M433.76 650.186C432.051 655.794 429.984 662.359 427.673 669.432M604.055 647.573C588.181 638.166 548.67 610.988 567.304 661.162C585.938 711.336 561.955 690.43 547.635 673.705C546.114 669.099 544.785 661.47 546.901 656.136M604.055 647.573L674.968 770.394C690.841 768.826 722.174 765.377 720.518 764.122C718.871 762.876 643.259 652.246 611.312 594.364M604.055 647.573C604.019 647.448 603.983 647.324 603.947 647.2M604.055 647.573C604.021 647.451 603.985 647.326 603.947 647.2M713.789 503.324C666.996 526.738 660.474 601.581 663.063 636.075C649.657 625.949 627.864 608.862 611.312 594.364M713.789 503.324C739.324 513.602 787.6 529.247 776.42 509.595C775.47 507.926 774.632 506.323 773.878 504.785M713.789 503.324L718.965 499.143M718.965 499.143L707.577 474.056L626.312 426.495L595.255 412.906L593.702 398.795C599.914 396.53 620.204 399.422 651.675 429.108C683.146 458.795 695.845 458.202 698.26 454.195C695.672 445.136 693.912 423.777 707.577 410.816C724.659 394.614 757.786 382.071 776.42 390.433C788.441 395.827 800.893 406.225 804.326 416.994M718.965 499.143C734.067 506.936 759.614 512.094 773.878 504.785M906.858 516.912C770.726 531.024 728.282 590.082 725.694 604.194C724.89 608.576 729.478 613.211 738.512 617.534M906.858 516.912L907.985 516.796M906.858 516.912C907.235 516.873 907.61 516.834 907.985 516.796M1182.75 505.937C1173.95 515.867 1152.21 540.954 1154.8 547.226C1157.38 553.497 1169.81 539.909 1178.09 545.658C1186.37 551.407 1191.55 540.431 1199.83 549.839C1208.11 559.246 1258.32 520.048 1272.81 497.052C1284.41 478.655 1275.23 497.4 1269.19 509.073L1363.91 480.85M1182.75 505.937L1183.11 505.526M1182.75 505.937C1182.87 505.8 1182.99 505.663 1183.11 505.526M1363.91 480.85C1338.38 513.08 1287.2 580.988 1286.79 594.786C1286.46 605.732 1287.41 619.155 1288.25 627.803M1363.91 480.85C1364.27 480.4 1365.9 473.4 1369.5 449C1373.1 424.6 1355.33 422.468 1346 424.452M1059.04 694.088C1066.9 674.855 1215.53 645.657 1288.86 633.462C1288.68 631.985 1288.47 630.056 1288.25 627.803M1059.04 694.088L1080.78 721.788L1146 737.99L1149.1 746.875L1077.67 730.151L1040.92 693.043M1059.04 694.088L1040.92 693.043M1040.92 693.043C1093.25 668.484 1205.32 626.683 1288.25 627.803M225.128 574.57C227.713 573.846 229.962 574.311 230.855 577.016C233.444 584.856 384.069 626.667 415.643 638.166C431.147 643.811 436.791 643.787 438.521 641M225.128 574.57C225.742 581.306 226.432 589.849 224.127 598.967C219.094 618.868 212.703 617.501 206.605 618.487M225.128 574.57C224.087 563.159 223.264 556.93 237.584 561.86C255.804 568.131 301.423 580.501 321.955 585.901L319.885 561.86L358.706 571.79L345.766 592.173C376.477 600.013 437.901 617.887 437.901 626.667C437.901 632.254 440.315 638.111 438.521 641M529.518 654.673C524.038 661.385 518.352 669.305 513.99 675.796L459.641 613.601L504.155 651.754L464.299 607.33L509.849 647.573L470.51 601.581L513.99 642.869L480.345 598.445L529.518 650.186V654.673ZM529.518 654.673C540.513 641.207 550.675 632.607 547.635 650.186C547.237 652.487 547.001 654.458 546.901 656.136M529.518 654.673V663.775C551.431 684.158 602.398 731.51 630.971 757.851C666.686 790.777 616.477 782.415 612.336 783.983C609.024 785.237 557.469 717.259 532.106 683.113C536.247 692.311 525.895 692.172 520.201 690.952C496.184 693.461 503.293 718.478 509.849 730.673C503.414 731.486 493.089 732.606 483.48 733.266M546.901 656.136C548.146 652.996 550.585 650.651 554.881 650.186C568.362 648.728 545.57 678.469 546.901 656.136ZM611.312 594.364C599.955 584.418 591.066 575.691 589.044 571.267C584.075 560.396 585.938 536.424 587.491 525.797L556.434 475.101L566.269 468.829C571.618 476.669 584.903 496.738 595.255 514.299C608.196 536.25 595.255 537.818 597.326 562.905C597.75 568.044 603.082 579.454 611.312 594.364ZM851.013 442.408C875.435 472.672 904.158 494.138 903.753 485.554C903.393 477.919 876.986 458.905 851.013 442.408ZM851.013 442.408C844.208 433.975 837.736 424.859 832.322 415.52C807.477 372.663 811.618 300.538 859.238 302.106C897.334 303.361 873.534 414.295 898.059 328.238C922.584 242.182 1004.56 254.968 985.536 395.137C977.328 455.595 959.522 490.852 942.057 513.279M851.013 442.408C839.646 435.188 828.363 428.45 819.382 423.359C813.938 420.274 808.917 418.22 804.326 416.994M899.337 572.617C931.013 567.326 963.945 563.081 990.712 560.814C1054.9 555.379 1071.29 560.292 1071.46 563.428C951.799 631.126 908.364 600.714 899.337 572.617ZM899.337 572.617C898.328 569.478 897.749 566.368 897.541 563.428C896.599 550.113 919.031 542.847 942.057 513.279M899.337 572.617C845.717 581.573 795.693 593.527 785.249 603.961M785.249 603.961C783.37 605.838 782.772 607.667 783.666 609.42C792.466 626.667 824.35 616.737 805.924 609.42C800.22 607.155 792.938 605.191 785.249 603.961ZM785.249 603.961C768.1 601.217 748.924 602.129 740.705 611.511C739.28 613.137 738.582 615.181 738.512 617.534M738.512 617.534C758.567 627.131 800.533 635.192 854.062 635.552C931.704 636.075 1029.53 605.762 1071.46 586.424C1105 570.954 1119.25 548.968 1122.19 539.909L1128.74 543.934M738.512 617.534C738 634.846 771.522 668.832 800.23 675.273C832.84 682.59 951.891 684.681 976.219 669.524C1000.55 654.367 1097.34 659.071 1125.29 553.497L1128.74 543.934M1128.74 543.934L1134.09 547.226H1151.17L1162.56 522.139H1151.17L1129.43 541.999L1128.74 543.934ZM1346 424.452C1338.48 428.749 1325.39 432.401 1316.29 434.335L1316.1 434.354M1346 424.452C1352.02 421.008 1354.46 417.15 1348.38 413.429C1340.17 408.404 1328.01 419.928 1316.1 434.354M1313.91 678.149C1310.35 677.938 1307 678.09 1304.39 678.409L1250.04 718.653L1245.38 735.377L1162.56 746.875L1166.18 759.941L1250.04 746.875L1256.76 730.151L1308.01 697.747L1313.91 678.149ZM1313.91 678.149L1327.68 632.416C1315.68 629.432 1302.39 627.994 1288.25 627.803M1313.91 678.149C1319.86 678.503 1326.4 679.874 1331.13 683.182M1331.13 683.182C1334.38 685.455 1336.77 688.643 1337.51 693.043C1340.62 711.336 1311.11 714.267 1319.4 697.747C1322.12 692.313 1326.41 687.004 1331.13 683.182ZM1331.13 683.182C1340.76 675.384 1352.16 673.773 1355.63 689.907C1360.81 713.949 1359.77 725.447 1387.72 746.875C1410.08 764.018 1431.89 727.537 1440 707.154L1498 689.907M1262.3 489.709L1262.98 489.735C1263.21 489.403 1263.45 489.056 1263.69 488.696M1262.3 489.709C1257.29 493.358 1252.84 496.586 1250.04 498.62C1246.07 509.944 1232.85 534.891 1211.73 544.09C1185.33 555.588 1240.72 512.731 1229.85 493.393C1218.98 474.056 1200.86 534.682 1191.03 537.295C1181.19 539.909 1205.52 519.003 1203.97 501.233C1202.44 483.707 1191.84 495.668 1183.11 505.526M1262.3 489.709C1262.76 489.375 1263.22 489.037 1263.69 488.696M1262.3 489.709L1193.62 487.122C1187.58 494.961 1172.91 511.686 1162.56 515.867C1149.62 521.094 1136.16 510.641 1148.58 502.801C1161.01 494.961 1186.89 473.533 1193.62 466.739C1199 461.303 1207.94 461.338 1211.73 462.035C1221.22 458.202 1236.99 449.701 1224.16 446.356C1211.32 443.011 1160.14 476.32 1136.16 493.393L1131.5 510.641L1122.19 513.777C1107.5 492.348 1074.05 500.188 1067.84 513.777C1061.62 527.365 1092.68 541.999 1095.27 519.526C1097.62 499.099 1052.51 501.988 942.057 513.279M1316.1 434.354C1303.24 449.935 1290.67 468.9 1283.68 474.056C1277.82 478.383 1270.35 483.838 1263.69 488.696M1316.1 434.354L1235.03 442.697C1237.96 442.697 1247.65 444.683 1262.98 452.627C1277.74 460.28 1269.98 479.218 1263.69 488.696M942.057 513.279C931.322 514.376 919.97 515.553 907.985 516.796M773.878 504.785C763.543 483.698 768.961 474.675 716.377 468.829L711.718 462.035C733.458 455.937 778.283 451.059 783.666 480.327C786.033 493.192 781.615 500.822 773.878 504.785ZM804.326 416.994C806.214 422.919 805.373 428.956 800.23 434.335C785.737 449.491 765.55 443.22 769.173 431.722C772.128 422.345 784.033 411.578 804.326 416.994ZM603.947 647.2C599.555 632.566 568.805 590.984 526.93 574.403L486.556 492.871L556.434 449.492L562.646 460.99L500.532 494.961L539.871 562.905C555.359 566.902 589.799 598.492 603.947 647.2ZM483.48 733.266C485.881 739.074 487.095 744.019 486.556 746.875C484.486 757.851 476.204 778.234 452.394 771.962C428.584 765.69 451.876 731.196 462.229 733.287C466.22 734.093 474.54 733.879 483.48 733.266ZM483.48 733.266C476.654 716.756 460.237 693.272 447.218 690.952C438.825 689.457 432.222 679.715 427.673 669.432M206.605 618.487L193.587 680.5C186.858 682.068 184.063 689.385 226.715 706.109C280.029 727.015 374.752 763.6 388.728 757.851C398.062 754.011 415.985 705.211 427.673 669.432M206.605 618.487C205.176 618.719 203.763 619.079 202.387 619.873C195.14 624.054 188.929 599.49 179.612 592.696C176.942 590.749 173.549 591.162 170.287 592.965M206.605 618.487L213.721 584.586M213.721 584.586C213.591 584.947 213.311 584.491 212.909 583.46M212.909 583.46L195.14 565.518L181.165 578.062C181.51 571.093 181.682 554.856 179.612 545.658C177.024 534.16 143.896 514.299 131.474 508.55C121.536 503.951 104.213 471.094 96.7937 455.241L75.5715 445.833L72.9835 433.29L82.3005 418.656H99.3817L199.281 537.818L216.88 546.703L203.94 558.724C207.687 565.751 211.289 579.297 212.909 583.46ZM170.287 592.965C176.598 610.889 169.887 625.733 161.495 617.26C154.848 610.548 162.164 597.452 170.287 592.965ZM170.287 592.965C169.59 590.987 168.735 588.972 167.707 586.947C159.425 570.64 136.65 602.103 126.298 619.873C107.664 616.737 54.3494 627.713 49.1733 632.417C43.9971 637.12 56.4198 647.573 58.4903 650.186C60.5607 652.8 62.1136 660.117 58.4903 668.479C54.867 676.841 51.7613 689.385 50.2085 696.179C48.6556 702.973 39.8562 698.792 33.6449 689.385C27.4335 679.977 33.1272 671.092 39.8562 662.73C46.5852 654.367 50.2085 669.524 53.3142 662.73C55.7987 657.294 52.2789 652.103 50.2085 650.186C36.2329 649.141 18.6341 660.117 18.6341 681.545C18.6341 698.688 40.7189 710.987 51.7613 714.994C54.867 721.266 57.9727 727.015 65.7369 739.558C68.9565 744.76 72.9773 749.961 76.9871 754.268M91.5901 754.211C86.2545 754.354 81.2034 754.352 76.9871 754.268M91.5901 754.211C101.274 757.355 124.755 759.79 134.062 752.102C145.449 742.694 164.083 719.175 144.932 671.092C125.78 623.009 137.168 624.054 139.756 623.009C142.344 621.964 144.932 624.054 142.344 631.894C139.756 639.734 139.238 644.96 148.037 660.117C156.837 675.273 163.566 678.409 163.566 694.088C163.566 709.768 161.495 724.924 157.354 733.287C153.214 741.649 150.108 757.851 140.791 762.032C131.474 766.213 97.3113 764.645 91.6175 764.645C88.2849 764.645 82.6469 760.348 76.9871 754.268M91.5901 754.211C89.4249 753.509 87.9496 752.77 87.4766 752.102C84.8886 748.443 142.861 737.99 133.027 746.875C127.416 751.944 108.135 753.77 91.5901 754.211Z" stroke="#257272" stroke-width="6"/>
</g>
<defs>
<clipPath id="clip0_89_3">
<rect width="1440" height="1024" fill="white"/>
</clipPath>
</defs>
</svg>
